M48
; DRILL file {KiCad (5.1.4-0-10_14)} date Monday, December 02, 2019 at 10:40:08 PM
; FORMAT={-:-/ absolute / inch / decimal}
; #@! TF.CreationDate,2019-12-02T22:40:08-05:00
; #@! TF.GenerationSoftware,Kicad,Pcbnew,(5.1.4-0-10_14)
; #@! TF.FileFunction,Plated,1,2,PTH
FMAT,2
INCH
T1C0.0157
T2C0.0236
T3C0.0276
T4C0.0315
T5C0.0400
T6C0.0433
T7C0.0591
%
G90
G05
T1
X1.78Y-2.43
X1.89Y-2.52
X2.0Y-2.58
X2.11Y-2.645
X2.22Y-2.695
X5.565Y-2.125
X5.895Y-2.635
X5.935Y-2.075
X6.095Y-2.01
X6.21Y-2.01
X6.33Y-2.01
X6.61Y-2.21
X6.68Y-2.36
X6.71Y-2.14
X6.7128Y-2.3886
X6.7952Y-2.507
X6.93Y-2.12
X6.945Y-2.67
X7.01Y-2.63
X7.085Y-2.155
X7.15Y-2.525
X7.175Y-2.685
X7.22Y-2.475
X7.24Y-2.305
X7.33Y-2.16
X7.365Y-2.0256
X7.405Y-2.83
X7.415Y-2.0256
X7.435Y-2.86
X7.55Y-2.385
X7.69Y-2.385
X7.79Y-2.385
X7.95Y-2.385
X8.15Y-2.335
X8.25Y-2.49
X8.26Y-2.33
X8.3729Y-2.3329
X8.45Y-2.45
X9.12Y-2.435
X6.5902Y-2.26
X6.5904Y-2.3122
X6.6236Y-2.26
X6.6238Y-2.3122
X6.6571Y-2.26
X6.6573Y-2.3122
X6.6906Y-2.26
X6.6908Y-2.3122
X6.724Y-2.26
X6.7242Y-2.3122
X6.7575Y-2.26
X6.7577Y-2.3122
X6.791Y-2.26
X6.7912Y-2.3122
X6.8246Y-2.26
X6.8246Y-2.3122
T2
X6.92Y-2.41
X6.92Y-2.4691
T3
X7.06Y-2.78
X7.36Y-2.78
X7.06Y-2.68
X7.36Y-2.68
X7.06Y-2.48
X7.36Y-2.48
X6.43Y-2.14
X6.43Y-2.3408
X7.06Y-2.58
X7.36Y-2.58
X7.06Y-2.38
X7.36Y-2.38
X7.0586Y-2.2775
X7.3586Y-2.2775
T4
X3.32Y-2.47
X3.32Y-2.67
X5.3Y-2.47
X4.31Y-2.4122
X4.31Y-2.6122
X6.95Y-2.58
X6.95Y-2.78
X2.44Y-2.47
X2.44Y-2.67
X5.3Y-2.67
X7.49Y-2.25
X7.49Y-2.55
X7.59Y-2.25
X7.59Y-2.55
X7.69Y-2.25
X7.69Y-2.55
X7.79Y-2.25
X7.79Y-2.55
X7.89Y-2.25
X7.89Y-2.55
X7.99Y-2.25
X7.99Y-2.55
X8.09Y-2.25
X8.09Y-2.55
X8.19Y-2.25
X8.19Y-2.55
X8.29Y-2.25
X8.29Y-2.55
X8.39Y-2.25
X8.59Y-2.25
X8.69Y-2.25
X8.79Y-2.25
X8.79Y-2.55
X3.54Y-2.6122
X4.42Y-2.47
X4.42Y-2.67
X8.69Y-2.55
X3.54Y-2.4122
X8.49Y-2.25
X8.59Y-2.55
X2.77Y-2.6122
X8.49Y-2.55
X2.77Y-2.4122
X8.39Y-2.55
X4.2Y-2.53
X4.2Y-2.73
X5.96Y-2.58
X5.96Y-2.78
X2.22Y-2.58
X2.22Y-2.78
X1.67Y-2.53
X1.67Y-2.73
X1.34Y-2.58
X1.34Y-2.78
X3.43Y-2.53
X3.43Y-2.73
X5.41Y-2.53
X5.41Y-2.73
X5.08Y-2.585
X5.08Y-2.785
X2.55Y-2.53
X2.55Y-2.73
X7.51Y-2.67
X7.51Y-2.8669
X3.87Y-2.58
X3.87Y-2.78
X5.63Y-2.4122
X5.63Y-2.6122
X1.56Y-2.47
X1.56Y-2.67
X4.75Y-2.6122
X4.53Y-2.53
X4.53Y-2.73
X1.89Y-2.6122
X3.65Y-2.47
X3.65Y-2.67
X2.88Y-2.47
X2.88Y-2.67
X1.89Y-2.4122
X4.75Y-2.4122
X1.01Y-2.4122
X2.66Y-2.78
X1.01Y-2.6122
X5.74Y-2.47
X5.74Y-2.67
X3.98Y-2.4122
X3.98Y-2.6122
X3.76Y-2.53
X3.76Y-2.73
X4.86Y-2.47
X4.86Y-2.67
X3.21Y-2.4122
X3.21Y-2.6122
X2.66Y-2.58
X1.45Y-2.4122
X1.45Y-2.6122
X2.0Y-2.67
X6.83Y-2.58
X6.83Y-2.78
X5.52Y-2.58
X5.52Y-2.78
X2.0Y-2.47
X1.12Y-2.47
X1.12Y-2.67
X4.09Y-2.47
X4.09Y-2.67
X4.64Y-2.585
X4.64Y-2.785
X2.33Y-2.4122
X2.33Y-2.6122
X2.99Y-2.53
X2.99Y-2.73
X8.19Y-2.14
X8.3869Y-2.14
X5.85Y-2.53
X5.85Y-2.73
X4.97Y-2.53
X4.97Y-2.73
X2.11Y-2.53
X2.11Y-2.73
X1.23Y-2.53
X1.78Y-2.58
X1.78Y-2.78
X8.2954Y-2.7687
X8.4875Y-2.7687
X1.23Y-2.73
X8.675Y-2.7075
X8.675Y-2.8059
X3.1Y-2.58
X3.1Y-2.78
X5.19Y-2.4122
X5.19Y-2.6122
X8.105Y-2.7075
X8.105Y-2.8059
T5
X6.01Y-2.14
X6.01Y-2.24
X6.11Y-2.14
X6.11Y-2.24
X6.21Y-2.14
X6.21Y-2.24
T6
X5.15Y-2.06
X5.15Y-2.2372
X5.4059Y-2.06
X5.4059Y-2.2372
X5.5741Y-2.06
X5.5741Y-2.2372
X5.83Y-2.06
X5.83Y-2.2372
T7
X7.5Y-5.65
X7.75Y-5.55
X7.5Y-3.4
X7.75Y-3.3
X1.5Y-5.65
X1.75Y-5.55
X6.75Y-3.4
X7.0Y-3.3
X0.75Y-5.65
X1.0Y-5.55
X5.25Y-3.4
X5.5Y-3.3
X7.5Y-4.9
X8.25Y-4.9
X2.25Y-5.65
X2.5Y-5.55
X1.5Y-4.15
X1.75Y-4.05
X9.0Y-3.4
X9.25Y-3.3
X6.0Y-3.4
X6.25Y-3.3
X9.0Y-4.9
X9.25Y-4.8
X3.0Y-3.4
X0.75Y-3.4
X1.0Y-3.3
X7.75Y-4.8
X1.75Y-3.3
X2.25Y-3.4
X2.5Y-3.3
X3.25Y-3.3
X0.75Y-4.15
X1.0Y-4.05
X4.5Y-3.4
X4.75Y-3.3
X4.175Y-5.95
X4.425Y-5.85
X3.75Y-4.9
X4.0Y-4.8
X4.5Y-4.9
X4.75Y-4.8
X5.25Y-4.9
X5.5Y-4.8
X6.0Y-4.9
X6.25Y-4.8
X3.75Y-4.15
X4.0Y-4.05
X3.75Y-3.4
X4.0Y-3.3
X8.5Y-4.8
X1.5Y-3.4
X6.75Y-4.9
X7.0Y-4.8
X3.0Y-4.9
X2.25Y-4.9
X2.5Y-4.8
X1.5Y-4.9
X1.75Y-4.8
X8.25Y-4.15
X8.5Y-4.05
X5.675Y-5.95
X4.5Y-4.15
X4.75Y-4.05
X9.25Y-5.55
X8.25Y-3.4
X8.5Y-3.3
X3.0Y-4.15
X3.25Y-4.05
X5.25Y-4.15
X5.925Y-5.85
X3.25Y-4.8
X7.5Y-4.15
X7.75Y-4.05
X9.0Y-4.15
X9.25Y-4.05
X0.75Y-4.9
X1.0Y-4.8
X5.5Y-4.05
X6.0Y-4.15
X6.25Y-4.05
X3.0Y-5.65
X6.75Y-4.15
X7.0Y-4.05
X3.25Y-5.55
X2.25Y-4.15
X2.5Y-4.05
X6.75Y-5.65
X7.0Y-5.55
X8.25Y-5.65
X8.5Y-5.55
X9.0Y-5.65
T2
G00X6.5372Y-2.1563
M15
G01X6.5372Y-2.1248
M16
G05
G00X6.5372Y-2.3031
M15
G01X6.5372Y-2.2441
M16
G05
G00X6.8778Y-2.1563
M15
G01X6.8778Y-2.1248
M16
G05
G00X6.8778Y-2.3031
M15
G01X6.8778Y-2.2441
M16
G05
T0
M30
