M48
; DRILL file {KiCad (5.1.4-0-10_14)} date Monday, December 02, 2019 at 10:40:08 PM
; FORMAT={-:-/ absolute / inch / decimal}
; #@! TF.CreationDate,2019-12-02T22:40:08-05:00
; #@! TF.GenerationSoftware,Kicad,Pcbnew,(5.1.4-0-10_14)
; #@! TF.FileFunction,NonPlated,1,2,NPTH
FMAT,2
INCH
T1C0.0669
T2C0.0866
T3C0.1201
T4C0.1575
%
G90
G05
T1
X8.2Y-4.25
X8.95Y-4.25
X9.35Y-4.25
X8.6Y-4.25
X0.7Y-5.0
X1.1Y-5.0
X1.45Y-5.0
X1.85Y-5.0
X7.45Y-4.25
X7.85Y-4.25
X2.2Y-5.0
X2.6Y-5.0
X4.85Y-4.25
X5.575Y-5.75
X5.975Y-5.75
X2.95Y-5.0
X3.35Y-5.0
X4.45Y-4.25
X5.95Y-4.25
X6.35Y-4.25
X6.7Y-4.25
X7.1Y-4.25
X5.2Y-4.25
X5.6Y-4.25
X2.95Y-4.25
X3.35Y-4.25
X2.95Y-5.75
X3.35Y-5.75
X6.7Y-5.75
X7.1Y-5.75
X7.45Y-5.75
X7.85Y-5.75
X8.95Y-5.75
X9.35Y-5.75
X8.2Y-3.5
X8.6Y-3.5
X8.2Y-5.75
X8.6Y-5.75
X2.2Y-5.75
X2.2Y-4.25
X2.6Y-4.25
X7.45Y-3.5
X2.6Y-5.75
X7.1Y-3.5
X6.7Y-3.5
X1.1Y-4.25
X1.45Y-3.5
X2.6Y-3.5
X0.7Y-4.25
X1.85Y-4.25
X1.45Y-5.75
X1.85Y-5.75
X1.45Y-4.25
X2.2Y-3.5
X0.7Y-5.75
X1.1Y-5.75
X1.85Y-3.5
X8.95Y-5.0
X9.35Y-5.0
X7.85Y-3.5
X5.95Y-3.5
X8.2Y-5.0
X8.6Y-5.0
X7.45Y-5.0
X7.85Y-5.0
X4.45Y-3.5
X4.85Y-3.5
X5.6Y-3.5
X3.7Y-4.25
X4.1Y-4.25
X6.35Y-3.5
X5.2Y-3.5
X6.7Y-5.0
X7.1Y-5.0
X8.95Y-3.5
X9.35Y-3.5
X2.95Y-3.5
X3.35Y-3.5
X5.2Y-5.0
X5.95Y-5.0
X6.35Y-5.0
X4.45Y-5.0
X4.85Y-5.0
X3.7Y-5.0
X4.1Y-5.0
X3.7Y-3.5
X4.1Y-3.5
X5.6Y-5.0
X4.075Y-5.75
X4.475Y-5.75
X0.7Y-3.5
X1.1Y-3.5
T2
X2.025Y-3.875
X8.815Y-3.875
X8.825Y-5.375
X0.67Y-2.95
X2.02Y-5.375
X0.67Y-2.13
X5.06Y-4.625
X9.38Y-2.125
X9.39Y-2.95
T3
X5.3065Y-6.0256
X6.2435Y-6.0256
X3.8065Y-6.0256
X4.7435Y-6.0256
T4
X9.15Y-5.0
X6.9Y-3.5
X1.65Y-3.5
X6.15Y-3.5
X5.4Y-3.5
X3.9Y-4.25
X2.4Y-3.5
X7.65Y-5.0
X1.65Y-4.25
X3.15Y-3.5
X8.4Y-5.0
X0.9Y-5.75
X0.9Y-4.25
X2.4Y-5.75
X4.65Y-3.5
X9.15Y-3.5
X3.8065Y-5.4256
X4.275Y-5.75
X4.7435Y-5.4256
X6.9Y-5.0
X0.9Y-3.5
X6.15Y-5.0
X3.9Y-3.5
X5.4Y-5.0
X4.65Y-5.0
X3.9Y-5.0
X3.15Y-5.0
X2.4Y-5.0
X9.15Y-4.25
X4.65Y-4.25
X1.65Y-5.0
X8.4Y-4.25
X5.3065Y-5.4256
X5.775Y-5.75
X6.2435Y-5.4256
X0.9Y-5.0
X7.65Y-4.25
X9.15Y-5.75
X7.65Y-3.5
X8.4Y-3.5
X7.65Y-5.75
X6.9Y-5.75
X3.15Y-5.75
X3.15Y-4.25
X5.4Y-4.25
X6.15Y-4.25
X6.9Y-4.25
X8.4Y-5.75
X2.4Y-4.25
X1.65Y-5.75
T0
M30
